<svg xmlns="http://www.w3.org/2000/svg" viewBox="0 0 305 305" role="img" aria-label="African Australian Christian United Church logo">
  <circle cx="152.50" cy="152.50" r="133.50" fill="#24506b"/>
  <path d="M 153.01 102.06 C 154.25 102.20 155.66 102.93 156.90 103.52 C 158.13 104.10 159.30 104.79 160.42 105.58 C 161.53 106.37 162.52 107.36 163.57 108.25 C 164.62 109.14 165.68 110.03 166.73 110.92 C 167.78 111.81 168.79 112.74 169.88 113.59 C 170.98 114.44 172.11 115.25 173.28 116.02 C 174.46 116.79 175.69 117.50 176.92 118.20 C 178.16 118.91 179.41 119.60 180.69 120.27 C 181.96 120.93 183.25 121.58 184.57 122.21 C 185.88 122.84 187.22 123.44 188.57 124.03 C 189.93 124.62 191.33 125.16 192.70 125.73 C 194.08 126.29 195.45 126.86 196.83 127.43 C 198.20 127.99 199.56 128.58 200.95 129.13 C 202.35 129.67 203.77 130.20 205.20 130.70 C 206.64 131.21 208.11 131.68 209.57 132.16 C 211.03 132.65 212.48 133.13 213.94 133.62 C 215.40 134.10 216.89 134.55 218.31 135.07 C 219.73 135.60 221.10 136.17 222.44 136.77 C 223.77 137.38 225.05 138.05 226.32 138.71 C 227.59 139.38 228.85 140.07 230.08 140.78 C 231.32 141.49 232.59 142.15 233.72 142.96 C 234.86 143.77 235.91 144.66 236.88 145.63 C 237.85 146.60 238.70 147.70 239.55 148.79 C 240.40 149.88 241.21 151.01 241.98 152.19 C 242.75 153.36 243.53 154.51 244.16 155.83 C 244.79 157.14 245.31 158.56 245.74 160.08 C 246.16 161.59 246.53 163.29 246.71 164.93 C 246.89 166.57 246.93 168.23 246.83 169.91 C 246.73 171.59 246.47 173.95 246.10 175.00 C 245.74 176.06 245.25 176.46 244.65 176.22 C 244.04 175.97 243.13 174.58 242.46 173.55 C 241.79 172.52 241.19 171.34 240.64 170.03 C 240.10 168.71 239.73 167.05 239.18 165.66 C 238.64 164.26 238.03 162.93 237.36 161.65 C 236.70 160.38 235.97 159.17 235.18 158.01 C 234.39 156.86 233.54 155.77 232.63 154.74 C 231.72 153.70 230.71 152.57 229.72 151.82 C 228.73 151.07 227.72 150.55 226.68 150.24 C 225.65 149.94 224.30 149.60 223.53 150.00 C 222.76 150.41 222.27 151.30 222.07 152.67 C 221.87 154.05 222.19 156.43 222.31 158.25 C 222.44 160.08 222.60 161.86 222.80 163.60 C 223.00 165.33 223.27 167.01 223.53 168.69 C 223.79 170.37 224.07 172.03 224.38 173.67 C 224.68 175.31 224.64 177.29 225.35 178.52 C 226.06 179.76 227.15 180.61 228.63 181.07 C 230.10 181.54 232.41 181.17 234.21 181.31 C 236.01 181.46 237.75 181.66 239.43 181.92 C 241.11 182.18 242.66 182.57 244.28 182.89 C 245.90 183.22 247.52 183.54 249.14 183.86 C 250.76 184.19 253.02 184.39 253.99 184.83 C 254.96 185.28 255.29 185.85 254.96 186.53 C 254.64 187.22 253.18 188.44 252.05 188.96 C 250.92 189.49 249.62 189.73 248.17 189.69 C 246.71 189.65 244.97 189.00 243.31 188.72 C 241.65 188.44 239.95 188.19 238.21 187.99 C 236.47 187.79 234.65 187.59 232.87 187.50 C 231.09 187.42 229.31 187.42 227.53 187.50 C 225.75 187.59 223.97 187.83 222.19 187.99 C 220.41 188.15 218.63 188.31 216.85 188.48 C 215.07 188.64 213.25 188.76 211.51 188.96 C 209.77 189.16 208.07 189.41 206.42 189.69 C 204.76 189.97 203.14 190.30 201.56 190.66 C 199.98 191.02 198.45 191.43 196.95 191.87 C 195.45 192.32 194.00 192.80 192.58 193.33 C 191.16 193.86 189.79 194.42 188.45 195.03 C 187.12 195.64 185.86 196.32 184.57 196.97 C 183.27 197.62 181.98 198.27 180.69 198.91 C 179.39 199.56 178.06 200.17 176.80 200.86 C 175.55 201.54 174.33 202.27 173.16 203.04 C 171.99 203.81 170.81 204.62 169.76 205.47 C 168.71 206.32 167.74 207.21 166.85 208.14 C 165.96 209.07 164.75 210.52 164.42 211.05 C 164.10 211.58 164.26 211.66 164.91 211.29 C 165.55 210.93 167.15 209.65 168.31 208.87 C 169.46 208.08 170.63 207.31 171.83 206.56 C 173.02 205.81 174.25 205.10 175.47 204.37 C 176.68 203.65 177.89 202.92 179.11 202.19 C 180.32 201.46 181.47 200.67 182.75 200.01 C 184.02 199.34 185.36 198.73 186.75 198.19 C 188.15 197.64 189.63 197.17 191.12 196.73 C 192.62 196.28 194.16 195.88 195.74 195.51 C 197.31 195.15 198.93 194.83 200.59 194.54 C 202.25 194.26 203.95 194.02 205.69 193.82 C 207.43 193.61 209.25 193.49 211.03 193.33 C 212.81 193.17 214.59 193.01 216.37 192.84 C 218.15 192.68 219.93 192.44 221.71 192.36 C 223.49 192.28 225.27 192.28 227.05 192.36 C 228.83 192.44 230.65 192.64 232.39 192.84 C 234.13 193.05 235.83 193.29 237.49 193.57 C 239.14 193.86 240.72 194.22 242.34 194.54 C 243.96 194.87 245.58 195.19 247.20 195.51 C 248.81 195.84 250.49 196.10 252.05 196.49 C 253.61 196.87 255.10 197.32 256.54 197.82 C 257.98 198.33 259.90 198.95 260.67 199.52 C 261.44 200.09 261.60 200.65 261.15 201.22 C 260.71 201.79 259.17 202.59 258.00 202.92 C 256.82 203.24 255.53 203.32 254.11 203.16 C 252.70 203.00 251.08 202.31 249.50 201.95 C 247.92 201.58 246.31 201.26 244.65 200.98 C 242.99 200.69 241.27 200.47 239.55 200.25 C 237.83 200.03 236.09 199.82 234.33 199.64 C 232.57 199.46 230.77 199.32 228.99 199.16 C 227.21 198.99 225.43 198.83 223.65 198.67 C 221.87 198.51 220.09 198.27 218.31 198.19 C 216.53 198.10 214.75 198.10 212.97 198.19 C 211.19 198.27 209.37 198.47 207.63 198.67 C 205.89 198.87 204.19 199.12 202.53 199.40 C 200.87 199.68 199.25 200.01 197.68 200.37 C 196.10 200.73 194.56 201.14 193.06 201.58 C 191.57 202.03 190.13 202.53 188.70 203.04 C 187.26 203.55 185.84 204.07 184.45 204.62 C 183.05 205.16 181.66 205.71 180.32 206.32 C 178.99 206.92 177.69 207.57 176.44 208.26 C 175.18 208.95 174.01 209.72 172.80 210.44 C 171.58 211.17 170.37 211.90 169.16 212.63 C 167.94 213.36 166.57 214.29 165.51 214.81 C 164.46 215.34 163.57 215.66 162.84 215.78 C 162.12 215.90 161.65 215.76 161.15 215.54 C 160.64 215.32 160.19 214.95 159.81 214.45 C 159.43 213.94 158.84 213.23 158.84 212.51 C 158.84 211.78 159.16 210.97 159.81 210.08 C 160.46 209.19 161.75 208.14 162.72 207.17 C 163.69 206.20 164.66 205.22 165.64 204.25 C 166.61 203.28 167.54 202.27 168.55 201.34 C 169.56 200.41 170.61 199.52 171.70 198.67 C 172.80 197.82 173.93 197.01 175.10 196.24 C 176.28 195.47 177.49 194.75 178.74 194.06 C 180.00 193.37 181.43 192.87 182.63 192.12 C 183.82 191.37 184.91 190.52 185.90 189.57 C 186.90 188.62 187.87 187.65 188.57 186.41 C 189.28 185.18 189.81 183.76 190.15 182.16 C 190.50 180.57 190.52 178.64 190.64 176.82 C 190.76 175.00 190.84 173.14 190.88 171.24 C 190.92 169.34 190.88 167.36 190.88 165.42 C 190.88 163.47 190.88 161.53 190.88 159.59 C 190.88 157.65 191.00 155.58 190.88 153.76 C 190.76 151.94 190.52 150.24 190.15 148.67 C 189.79 147.09 189.24 145.69 188.70 144.30 C 188.15 142.90 187.54 141.57 186.88 140.29 C 186.21 139.02 185.50 137.78 184.69 136.65 C 183.88 135.52 182.99 134.47 182.02 133.50 C 181.05 132.52 179.92 131.72 178.86 130.83 C 177.81 129.94 176.76 129.05 175.71 128.16 C 174.66 127.27 173.61 126.38 172.55 125.49 C 171.50 124.60 170.45 123.71 169.40 122.82 C 168.35 121.93 167.25 121.08 166.24 120.15 C 165.23 119.21 164.26 118.24 163.33 117.23 C 162.40 116.22 161.53 115.15 160.66 114.08 C 159.79 113.00 158.94 111.91 158.11 110.80 C 157.28 109.69 156.53 108.09 155.68 107.40 C 154.83 106.71 153.94 106.47 153.01 106.67 C 152.08 106.88 151.03 107.85 150.10 108.62 C 149.17 109.38 148.28 110.27 147.43 111.29 C 146.58 112.30 145.85 113.59 145.00 114.68 C 144.15 115.78 143.26 116.83 142.33 117.84 C 141.40 118.85 140.43 119.82 139.42 120.75 C 138.41 121.68 137.36 122.57 136.26 123.42 C 135.17 124.27 133.98 125.02 132.87 125.85 C 131.75 126.68 130.66 127.53 129.59 128.40 C 128.52 129.27 127.45 130.14 126.43 131.07 C 125.42 132.00 124.45 132.97 123.52 133.98 C 122.59 134.99 121.66 136.00 120.85 137.14 C 120.04 138.27 119.31 139.48 118.67 140.78 C 118.02 142.07 117.47 143.47 116.97 144.90 C 116.46 146.34 116.02 147.84 115.63 149.39 C 115.25 150.95 114.86 152.59 114.66 154.25 C 114.46 155.91 114.38 157.61 114.42 159.35 C 114.46 161.09 114.78 162.87 114.90 164.69 C 115.03 166.51 115.11 168.37 115.15 170.27 C 115.19 172.17 115.07 174.23 115.15 176.10 C 115.23 177.96 115.39 179.74 115.63 181.44 C 115.87 183.14 116.06 184.90 116.60 186.29 C 117.15 187.69 117.92 188.86 118.91 189.81 C 119.90 190.76 121.34 191.27 122.55 192.00 C 123.76 192.72 124.98 193.45 126.19 194.18 C 127.40 194.91 128.66 195.60 129.83 196.36 C 131.01 197.13 132.14 197.94 133.23 198.79 C 134.32 199.64 135.35 200.55 136.39 201.46 C 137.42 202.37 138.43 203.30 139.42 204.25 C 140.41 205.20 141.56 206.28 142.33 207.17 C 143.10 208.06 143.67 208.87 144.03 209.59 C 144.40 210.32 144.66 211.27 144.52 211.54 C 144.38 211.80 143.93 211.68 143.18 211.17 C 142.43 210.67 141.10 209.37 140.03 208.50 C 138.95 207.63 137.86 206.78 136.75 205.95 C 135.64 205.12 134.50 204.31 133.35 203.53 C 132.20 202.74 131.03 201.97 129.83 201.22 C 128.64 200.47 127.42 199.74 126.19 199.03 C 124.96 198.33 123.70 197.64 122.43 196.97 C 121.15 196.30 119.90 195.62 118.54 195.03 C 117.19 194.44 115.77 193.92 114.30 193.45 C 112.82 192.99 111.22 192.64 109.68 192.24 C 108.15 191.83 106.61 191.43 105.07 191.02 C 103.54 190.62 102.06 190.15 100.46 189.81 C 98.86 189.47 97.20 189.18 95.48 188.96 C 93.77 188.74 91.92 188.64 90.14 188.48 C 88.36 188.31 86.58 188.15 84.80 187.99 C 83.02 187.83 81.24 187.59 79.46 187.50 C 77.68 187.42 75.90 187.42 74.12 187.50 C 72.34 187.59 70.56 187.83 68.78 187.99 C 67.00 188.15 65.22 188.31 63.44 188.48 C 61.66 188.64 59.78 188.98 58.10 188.96 C 56.42 188.94 54.85 188.74 53.37 188.35 C 51.89 187.97 49.93 187.22 49.24 186.66 C 48.56 186.09 48.56 185.52 49.24 184.96 C 49.93 184.39 51.93 183.68 53.37 183.26 C 54.81 182.83 56.30 182.55 57.86 182.41 C 59.42 182.27 61.06 182.45 62.72 182.41 C 64.37 182.37 66.07 182.29 67.81 182.16 C 69.55 182.04 71.60 182.06 73.15 181.68 C 74.71 181.29 76.05 180.69 77.16 179.86 C 78.27 179.03 79.12 177.94 79.83 176.70 C 80.54 175.47 81.06 174.05 81.41 172.45 C 81.75 170.86 81.73 168.89 81.89 167.11 C 82.05 165.33 82.22 163.55 82.38 161.77 C 82.54 159.99 82.86 158.01 82.86 156.43 C 82.86 154.86 82.70 153.48 82.38 152.31 C 82.05 151.13 81.55 149.90 80.92 149.39 C 80.29 148.89 79.52 148.85 78.61 149.27 C 77.70 149.70 76.47 151.01 75.46 151.94 C 74.45 152.87 73.48 153.85 72.55 154.86 C 71.62 155.87 70.71 156.90 69.88 158.01 C 69.05 159.12 68.28 160.30 67.57 161.53 C 66.86 162.77 66.24 164.08 65.63 165.42 C 65.02 166.75 64.45 168.13 63.93 169.54 C 63.40 170.96 63.00 173.02 62.47 173.91 C 61.95 174.80 61.38 175.13 60.77 174.88 C 60.17 174.64 59.28 173.51 58.83 172.45 C 58.39 171.40 58.14 170.11 58.10 168.57 C 58.06 167.03 58.35 164.93 58.59 163.23 C 58.83 161.53 59.16 159.91 59.56 158.38 C 59.96 156.84 60.41 155.34 61.02 154.01 C 61.62 152.67 62.35 151.46 63.20 150.37 C 64.05 149.27 65.12 148.40 66.11 147.45 C 67.10 146.50 68.12 145.57 69.15 144.66 C 70.18 143.75 71.19 142.82 72.30 141.99 C 73.42 141.16 74.59 140.39 75.82 139.69 C 77.06 138.98 78.41 138.39 79.71 137.74 C 81.00 137.10 82.30 136.45 83.59 135.80 C 84.89 135.15 86.14 134.47 87.47 133.86 C 88.81 133.25 90.19 132.69 91.60 132.16 C 93.02 131.63 94.49 131.17 95.97 130.70 C 97.45 130.24 98.94 129.79 100.46 129.37 C 101.98 128.94 103.54 128.56 105.07 128.16 C 106.61 127.75 108.15 127.35 109.68 126.94 C 111.22 126.54 112.82 126.19 114.30 125.73 C 115.77 125.26 117.19 124.74 118.54 124.15 C 119.90 123.56 121.15 122.88 122.43 122.21 C 123.70 121.54 124.96 120.85 126.19 120.15 C 127.42 119.44 128.64 118.71 129.83 117.96 C 131.03 117.21 132.20 116.44 133.35 115.65 C 134.50 114.87 135.64 114.06 136.75 113.23 C 137.86 112.40 138.95 111.55 140.03 110.68 C 141.10 109.81 142.13 108.90 143.18 108.01 C 144.23 107.12 145.29 106.23 146.34 105.34 C 147.39 104.45 148.38 103.21 149.49 102.67 C 150.61 102.12 151.78 101.92 153.01 102.06 Z M 69.88 192.48 C 70.12 192.40 70.34 192.30 70.60 192.24 C 70.87 192.18 71.15 192.14 71.45 192.12 C 71.76 192.10 72.10 192.12 72.42 192.12 C 72.75 192.12 73.07 192.12 73.40 192.12 C 73.72 192.12 74.04 192.12 74.37 192.12 C 74.69 192.12 75.01 192.12 75.34 192.12 C 75.66 192.12 75.98 192.12 76.31 192.12 C 76.63 192.12 76.96 192.12 77.28 192.12 C 77.60 192.12 77.93 192.12 78.25 192.12 C 78.57 192.12 78.90 192.12 79.22 192.12 C 79.55 192.12 79.87 192.12 80.19 192.12 C 80.52 192.12 80.84 192.12 81.16 192.12 C 81.49 192.12 81.81 192.12 82.13 192.12 C 82.46 192.12 82.78 192.12 83.11 192.12 C 83.43 192.12 83.75 192.12 84.08 192.12 C 84.40 192.12 84.72 192.12 85.05 192.12 C 85.37 192.12 85.69 192.12 86.02 192.12 C 86.34 192.12 86.67 192.12 86.99 192.12 C 87.31 192.12 87.64 192.12 87.96 192.12 C 88.28 192.12 88.61 192.12 88.93 192.12 C 89.25 192.12 89.58 192.12 89.90 192.12 C 90.23 192.12 90.55 192.12 90.87 192.12 C 91.20 192.12 91.54 192.10 91.84 192.12 C 92.15 192.14 92.43 192.18 92.69 192.24 C 92.96 192.30 93.18 192.40 93.42 192.48 C 93.66 192.56 93.91 192.64 94.15 192.72 C 94.39 192.80 94.61 192.91 94.88 192.97 C 95.14 193.03 95.42 193.07 95.73 193.09 C 96.03 193.11 96.37 193.09 96.70 193.09 C 97.02 193.09 97.35 193.09 97.67 193.09 C 97.99 193.09 98.34 193.07 98.64 193.09 C 98.94 193.11 99.23 193.15 99.49 193.21 C 99.75 193.27 99.98 193.37 100.22 193.45 C 100.46 193.53 100.70 193.61 100.95 193.69 C 101.19 193.78 101.41 193.88 101.67 193.94 C 101.94 194.00 102.22 194.04 102.52 194.06 C 102.83 194.08 103.19 194.04 103.50 194.06 C 103.80 194.08 104.08 194.12 104.34 194.18 C 104.61 194.24 104.83 194.34 105.07 194.42 C 105.32 194.50 105.56 194.58 105.80 194.67 C 106.04 194.75 106.27 194.85 106.53 194.91 C 106.79 194.97 107.08 195.01 107.38 195.03 C 107.68 195.05 108.05 195.01 108.35 195.03 C 108.65 195.05 108.94 195.09 109.20 195.15 C 109.46 195.21 109.68 195.31 109.93 195.39 C 110.17 195.47 110.41 195.56 110.66 195.64 C 110.90 195.72 111.16 195.78 111.38 195.88 C 111.61 195.98 111.81 196.10 111.99 196.24 C 112.17 196.38 112.27 196.61 112.48 196.73 C 112.68 196.85 112.92 196.93 113.20 196.97 C 113.49 197.01 113.85 196.97 114.18 196.97 C 114.50 196.97 114.82 196.97 115.15 196.97 C 115.47 196.97 115.83 196.93 116.12 196.97 C 116.40 197.01 116.64 197.09 116.85 197.21 C 117.05 197.34 117.15 197.56 117.33 197.70 C 117.51 197.84 117.72 197.96 117.94 198.06 C 118.16 198.16 118.42 198.23 118.67 198.31 C 118.91 198.39 119.15 198.47 119.39 198.55 C 119.64 198.63 119.90 198.69 120.12 198.79 C 120.35 198.89 120.55 199.01 120.73 199.16 C 120.91 199.30 121.03 199.50 121.21 199.64 C 121.40 199.78 121.60 199.90 121.82 200.01 C 122.04 200.11 122.31 200.17 122.55 200.25 C 122.79 200.33 123.04 200.41 123.28 200.49 C 123.52 200.57 123.78 200.63 124.01 200.73 C 124.23 200.83 124.43 200.96 124.61 201.10 C 124.80 201.24 124.92 201.44 125.10 201.58 C 125.28 201.72 125.48 201.85 125.71 201.95 C 125.93 202.05 126.21 202.09 126.43 202.19 C 126.66 202.29 126.86 202.41 127.04 202.55 C 127.22 202.70 127.34 202.90 127.53 203.04 C 127.71 203.18 127.91 203.30 128.13 203.40 C 128.36 203.50 128.64 203.55 128.86 203.65 C 129.08 203.75 129.29 203.87 129.47 204.01 C 129.65 204.15 129.79 204.33 129.95 204.50 C 130.12 204.66 130.28 204.82 130.44 204.98 C 130.60 205.14 130.74 205.33 130.92 205.47 C 131.11 205.61 131.31 205.73 131.53 205.83 C 131.75 205.93 132.04 205.97 132.26 206.07 C 132.48 206.18 132.68 206.30 132.87 206.44 C 133.05 206.58 133.19 206.76 133.35 206.92 C 133.51 207.09 133.68 207.25 133.84 207.41 C 134.00 207.57 134.16 207.73 134.32 207.89 C 134.48 208.06 134.65 208.22 134.81 208.38 C 134.97 208.54 135.11 208.72 135.29 208.87 C 135.48 209.01 135.68 209.13 135.90 209.23 C 136.12 209.33 136.41 209.37 136.63 209.47 C 136.85 209.57 137.05 209.69 137.24 209.84 C 137.42 209.98 137.56 210.16 137.72 210.32 C 137.88 210.48 138.04 210.65 138.21 210.81 C 138.37 210.97 138.53 211.13 138.69 211.29 C 138.85 211.45 139.02 211.62 139.18 211.78 C 139.34 211.94 139.50 212.10 139.66 212.26 C 139.82 212.43 139.99 212.59 140.15 212.75 C 140.31 212.91 140.45 213.09 140.63 213.23 C 140.82 213.38 141.02 213.50 141.24 213.60 C 141.46 213.70 141.75 213.74 141.97 213.84 C 142.19 213.94 142.39 214.06 142.58 214.21 C 142.76 214.35 142.90 214.53 143.06 214.69 C 143.22 214.85 143.38 215.01 143.55 215.18 C 143.71 215.34 143.87 215.50 144.03 215.66 C 144.19 215.82 144.36 215.99 144.52 216.15 C 144.68 216.31 144.84 216.47 145.00 216.63 C 145.16 216.79 145.33 216.96 145.49 217.12 C 145.65 217.28 145.81 217.44 145.97 217.60 C 146.14 217.77 146.30 217.93 146.46 218.09 C 146.62 218.25 146.88 218.43 146.94 218.57 C 147.01 218.72 146.97 218.84 146.82 218.94 C 146.68 219.04 146.32 219.16 146.10 219.18 C 145.87 219.20 145.67 219.16 145.49 219.06 C 145.31 218.96 145.19 218.72 145.00 218.57 C 144.82 218.43 144.62 218.31 144.40 218.21 C 144.17 218.11 143.89 218.07 143.67 217.97 C 143.45 217.87 143.24 217.75 143.06 217.60 C 142.88 217.46 142.74 217.28 142.58 217.12 C 142.41 216.96 142.25 216.79 142.09 216.63 C 141.93 216.47 141.79 216.29 141.60 216.15 C 141.42 216.01 141.22 215.88 141.00 215.78 C 140.78 215.68 140.49 215.64 140.27 215.54 C 140.05 215.44 139.84 215.32 139.66 215.18 C 139.48 215.03 139.34 214.85 139.18 214.69 C 139.02 214.53 138.85 214.37 138.69 214.21 C 138.53 214.04 138.37 213.88 138.21 213.72 C 138.04 213.56 137.88 213.40 137.72 213.23 C 137.56 213.07 137.42 212.89 137.24 212.75 C 137.05 212.61 136.85 212.49 136.63 212.39 C 136.41 212.28 136.14 212.22 135.90 212.14 C 135.66 212.06 135.41 211.98 135.17 211.90 C 134.93 211.82 134.67 211.76 134.44 211.66 C 134.22 211.56 134.02 211.43 133.84 211.29 C 133.66 211.15 133.53 210.95 133.35 210.81 C 133.17 210.67 132.97 210.54 132.74 210.44 C 132.52 210.34 132.24 210.30 132.02 210.20 C 131.79 210.10 131.59 209.98 131.41 209.84 C 131.23 209.69 131.11 209.49 130.92 209.35 C 130.74 209.21 130.54 209.09 130.32 208.99 C 130.10 208.89 129.83 208.82 129.59 208.74 C 129.35 208.66 129.10 208.58 128.86 208.50 C 128.62 208.42 128.38 208.34 128.13 208.26 C 127.89 208.18 127.65 208.10 127.40 208.02 C 127.16 207.93 126.90 207.87 126.68 207.77 C 126.45 207.67 126.25 207.55 126.07 207.41 C 125.89 207.27 125.77 207.07 125.58 206.92 C 125.40 206.78 125.20 206.66 124.98 206.56 C 124.75 206.46 124.47 206.42 124.25 206.32 C 124.03 206.22 123.82 206.09 123.64 205.95 C 123.46 205.81 123.34 205.61 123.16 205.47 C 122.97 205.33 122.77 205.20 122.55 205.10 C 122.33 205.00 122.06 204.94 121.82 204.86 C 121.58 204.78 121.34 204.70 121.09 204.62 C 120.85 204.54 120.61 204.46 120.37 204.37 C 120.12 204.29 119.88 204.21 119.64 204.13 C 119.39 204.05 119.17 203.95 118.91 203.89 C 118.65 203.83 118.36 203.79 118.06 203.77 C 117.76 203.75 117.37 203.81 117.09 203.77 C 116.81 203.73 116.56 203.65 116.36 203.53 C 116.16 203.40 116.06 203.18 115.87 203.04 C 115.69 202.90 115.49 202.78 115.27 202.68 C 115.05 202.57 114.78 202.51 114.54 202.43 C 114.30 202.35 114.05 202.27 113.81 202.19 C 113.57 202.11 113.31 202.05 113.08 201.95 C 112.86 201.85 112.66 201.72 112.48 201.58 C 112.29 201.44 112.19 201.22 111.99 201.10 C 111.79 200.98 111.55 200.90 111.26 200.86 C 110.98 200.81 110.62 200.86 110.29 200.86 C 109.97 200.86 109.64 200.86 109.32 200.86 C 109.00 200.86 108.67 200.86 108.35 200.86 C 108.03 200.86 107.70 200.86 107.38 200.86 C 107.06 200.86 106.69 200.90 106.41 200.86 C 106.12 200.81 105.88 200.73 105.68 200.61 C 105.48 200.49 105.40 200.25 105.19 200.13 C 104.99 200.01 104.75 199.92 104.47 199.88 C 104.18 199.84 103.78 199.92 103.50 199.88 C 103.21 199.84 102.97 199.76 102.77 199.64 C 102.56 199.52 102.48 199.28 102.28 199.16 C 102.08 199.03 101.84 198.95 101.55 198.91 C 101.27 198.87 100.91 198.91 100.58 198.91 C 100.26 198.91 99.93 198.91 99.61 198.91 C 99.29 198.91 98.96 198.91 98.64 198.91 C 98.32 198.91 97.99 198.91 97.67 198.91 C 97.35 198.91 97.02 198.91 96.70 198.91 C 96.37 198.91 96.05 198.91 95.73 198.91 C 95.40 198.91 95.04 198.95 94.76 198.91 C 94.47 198.87 94.23 198.79 94.03 198.67 C 93.83 198.55 93.75 198.31 93.54 198.19 C 93.34 198.06 93.10 197.98 92.81 197.94 C 92.53 197.90 92.17 197.94 91.84 197.94 C 91.52 197.94 91.20 197.94 90.87 197.94 C 90.55 197.94 90.23 197.94 89.90 197.94 C 89.58 197.94 89.25 197.94 88.93 197.94 C 88.61 197.94 88.28 197.94 87.96 197.94 C 87.64 197.94 87.31 197.94 86.99 197.94 C 86.67 197.94 86.34 197.94 86.02 197.94 C 85.69 197.94 85.37 197.94 85.05 197.94 C 84.72 197.94 84.40 197.94 84.08 197.94 C 83.75 197.94 83.43 197.94 83.11 197.94 C 82.78 197.94 82.46 197.94 82.13 197.94 C 81.81 197.94 81.49 197.94 81.16 197.94 C 80.84 197.94 80.52 197.94 80.19 197.94 C 79.87 197.94 79.55 197.94 79.22 197.94 C 78.90 197.94 78.55 197.92 78.25 197.94 C 77.95 197.96 77.66 198.00 77.40 198.06 C 77.14 198.12 76.92 198.23 76.67 198.31 C 76.43 198.39 76.19 198.47 75.94 198.55 C 75.70 198.63 75.48 198.73 75.22 198.79 C 74.95 198.85 74.67 198.89 74.37 198.91 C 74.06 198.93 73.72 198.91 73.40 198.91 C 73.07 198.91 72.75 198.91 72.42 198.91 C 72.10 198.91 71.78 198.91 71.45 198.91 C 71.13 198.91 70.81 198.91 70.48 198.91 C 70.16 198.91 69.84 198.91 69.51 198.91 C 69.19 198.91 68.86 198.91 68.54 198.91 C 68.22 198.91 67.89 198.91 67.57 198.91 C 67.25 198.91 66.92 198.91 66.60 198.91 C 66.28 198.91 65.91 198.87 65.63 198.91 C 65.34 198.95 65.10 199.03 64.90 199.16 C 64.70 199.28 64.62 199.52 64.41 199.64 C 64.21 199.76 63.97 199.84 63.69 199.88 C 63.40 199.92 63.04 199.88 62.72 199.88 C 62.39 199.88 62.07 199.88 61.74 199.88 C 61.42 199.88 61.06 199.84 60.77 199.88 C 60.49 199.92 60.25 200.01 60.05 200.13 C 59.84 200.25 59.76 200.49 59.56 200.61 C 59.36 200.73 59.11 200.81 58.83 200.86 C 58.55 200.90 58.18 200.86 57.86 200.86 C 57.54 200.86 57.21 200.86 56.89 200.86 C 56.57 200.86 56.20 200.81 55.92 200.86 C 55.64 200.90 55.39 200.98 55.19 201.10 C 54.99 201.22 54.91 201.46 54.71 201.58 C 54.50 201.70 54.26 201.79 53.98 201.83 C 53.69 201.87 53.31 201.81 53.01 201.83 C 52.70 201.85 52.42 201.89 52.16 201.95 C 51.89 202.01 51.67 202.11 51.43 202.19 C 51.19 202.27 50.94 202.35 50.70 202.43 C 50.46 202.51 50.21 202.59 49.97 202.68 C 49.73 202.76 49.49 202.84 49.24 202.92 C 49.00 203.00 48.76 203.08 48.52 203.16 C 48.27 203.24 48.03 203.32 47.79 203.40 C 47.54 203.48 47.32 203.59 47.06 203.65 C 46.80 203.71 46.51 203.75 46.21 203.77 C 45.91 203.79 45.56 203.77 45.24 203.77 C 44.91 203.77 44.59 203.77 44.27 203.77 C 43.94 203.77 43.58 203.81 43.30 203.77 C 43.01 203.73 42.77 203.65 42.57 203.53 C 42.37 203.40 42.24 203.20 42.08 203.04 C 41.92 202.88 41.76 202.72 41.60 202.55 C 41.44 202.39 41.25 202.25 41.11 202.07 C 40.97 201.89 40.85 201.68 40.75 201.46 C 40.65 201.24 40.55 200.98 40.50 200.73 C 40.46 200.49 40.46 200.25 40.50 200.01 C 40.55 199.76 40.65 199.50 40.75 199.28 C 40.85 199.05 40.97 198.85 41.11 198.67 C 41.25 198.49 41.39 198.31 41.60 198.19 C 41.80 198.06 42.04 197.98 42.33 197.94 C 42.61 197.90 42.99 197.96 43.30 197.94 C 43.60 197.92 43.88 197.88 44.15 197.82 C 44.41 197.76 44.63 197.66 44.87 197.58 C 45.12 197.50 45.36 197.42 45.60 197.34 C 45.85 197.25 46.07 197.15 46.33 197.09 C 46.59 197.03 46.88 196.99 47.18 196.97 C 47.48 196.95 47.87 197.01 48.15 196.97 C 48.43 196.93 48.68 196.85 48.88 196.73 C 49.08 196.61 49.16 196.36 49.36 196.24 C 49.57 196.12 49.81 196.04 50.09 196.00 C 50.38 195.96 50.76 196.02 51.06 196.00 C 51.37 195.98 51.65 195.94 51.91 195.88 C 52.18 195.82 52.40 195.72 52.64 195.64 C 52.88 195.56 53.13 195.47 53.37 195.39 C 53.61 195.31 53.84 195.21 54.10 195.15 C 54.36 195.09 54.64 195.05 54.95 195.03 C 55.25 195.01 55.62 195.05 55.92 195.03 C 56.22 195.01 56.51 194.97 56.77 194.91 C 57.03 194.85 57.25 194.75 57.50 194.67 C 57.74 194.58 57.98 194.50 58.22 194.42 C 58.47 194.34 58.69 194.24 58.95 194.18 C 59.22 194.12 59.50 194.08 59.80 194.06 C 60.11 194.04 60.47 194.08 60.77 194.06 C 61.08 194.04 61.36 194.00 61.62 193.94 C 61.89 193.88 62.11 193.78 62.35 193.69 C 62.59 193.61 62.84 193.53 63.08 193.45 C 63.32 193.37 63.54 193.27 63.81 193.21 C 64.07 193.15 64.35 193.11 64.66 193.09 C 64.96 193.07 65.30 193.09 65.63 193.09 C 65.95 193.09 66.28 193.09 66.60 193.09 C 66.92 193.09 67.27 193.11 67.57 193.09 C 67.87 193.07 68.16 193.03 68.42 192.97 C 68.68 192.91 68.91 192.80 69.15 192.72 C 69.39 192.64 69.63 192.56 69.88 192.48 Z M 92.69 202.43 C 93.22 202.47 93.77 202.61 94.39 202.68 C 95.02 202.74 95.71 202.78 96.46 202.80 C 97.20 202.82 98.11 202.76 98.88 202.80 C 99.65 202.84 100.38 202.92 101.07 203.04 C 101.76 203.16 102.36 203.36 103.01 203.53 C 103.66 203.69 104.30 203.85 104.95 204.01 C 105.60 204.17 106.25 204.33 106.89 204.50 C 107.54 204.66 108.19 204.82 108.84 204.98 C 109.48 205.14 110.13 205.31 110.78 205.47 C 111.42 205.63 112.07 205.79 112.72 205.95 C 113.37 206.11 114.01 206.28 114.66 206.44 C 115.31 206.60 115.96 206.76 116.60 206.92 C 117.25 207.09 117.92 207.23 118.54 207.41 C 119.17 207.59 119.78 207.79 120.37 208.02 C 120.95 208.24 121.50 208.50 122.06 208.74 C 122.63 208.99 123.20 209.23 123.76 209.47 C 124.33 209.72 124.90 209.96 125.46 210.20 C 126.03 210.44 126.60 210.69 127.16 210.93 C 127.73 211.17 128.29 211.41 128.86 211.66 C 129.43 211.90 129.99 212.14 130.56 212.39 C 131.13 212.63 131.71 212.85 132.26 213.11 C 132.81 213.38 133.33 213.66 133.84 213.96 C 134.34 214.27 134.81 214.61 135.29 214.93 C 135.78 215.26 136.26 215.58 136.75 215.90 C 137.24 216.23 137.74 216.53 138.21 216.88 C 138.67 217.22 139.12 217.58 139.54 217.97 C 139.97 218.35 140.35 218.78 140.76 219.18 C 141.16 219.59 141.56 219.99 141.97 220.40 C 142.37 220.80 142.80 221.18 143.18 221.61 C 143.57 222.03 143.93 222.48 144.27 222.94 C 144.62 223.41 144.90 223.94 145.25 224.40 C 145.59 224.87 145.95 225.31 146.34 225.74 C 146.72 226.16 147.11 226.59 147.55 226.95 C 148.00 227.31 148.48 227.64 149.01 227.92 C 149.53 228.20 150.12 228.51 150.71 228.65 C 151.29 228.79 151.90 228.83 152.53 228.77 C 153.16 228.71 153.84 228.47 154.47 228.28 C 155.10 228.10 155.70 227.90 156.29 227.68 C 156.88 227.46 157.48 227.25 157.99 226.95 C 158.50 226.65 158.94 226.28 159.32 225.86 C 159.71 225.43 159.97 224.89 160.30 224.40 C 160.62 223.92 160.94 223.43 161.27 222.94 C 161.59 222.46 161.89 221.95 162.24 221.49 C 162.58 221.02 162.95 220.58 163.33 220.15 C 163.71 219.73 164.14 219.34 164.54 218.94 C 164.95 218.53 165.35 218.13 165.76 217.73 C 166.16 217.32 166.53 216.88 166.97 216.51 C 167.42 216.15 167.90 215.82 168.43 215.54 C 168.95 215.26 169.58 215.08 170.13 214.81 C 170.67 214.55 171.20 214.27 171.70 213.96 C 172.21 213.66 172.65 213.30 173.16 212.99 C 173.67 212.69 174.19 212.41 174.74 212.14 C 175.28 211.88 175.87 211.66 176.44 211.41 C 177.00 211.17 177.57 210.93 178.14 210.69 C 178.70 210.44 179.27 210.20 179.84 209.96 C 180.40 209.72 180.97 209.47 181.53 209.23 C 182.10 208.99 182.67 208.74 183.23 208.50 C 183.80 208.26 184.37 208.02 184.93 207.77 C 185.50 207.53 186.03 207.25 186.63 207.04 C 187.24 206.84 187.89 206.68 188.57 206.56 C 189.26 206.44 190.05 206.42 190.76 206.32 C 191.47 206.22 192.15 206.09 192.82 205.95 C 193.49 205.81 194.12 205.63 194.76 205.47 C 195.41 205.31 196.06 205.14 196.71 204.98 C 197.35 204.82 197.98 204.64 198.65 204.50 C 199.32 204.35 200.00 204.23 200.71 204.13 C 201.42 204.03 202.15 203.95 202.90 203.89 C 203.64 203.83 204.41 203.79 205.20 203.77 C 205.99 203.75 206.86 203.81 207.63 203.77 C 208.40 203.73 209.13 203.65 209.81 203.53 C 210.50 203.40 211.07 203.16 211.76 203.04 C 212.44 202.92 213.17 202.84 213.94 202.80 C 214.71 202.76 215.56 202.80 216.37 202.80 C 217.18 202.80 217.99 202.80 218.80 202.80 C 219.60 202.80 220.45 202.76 221.22 202.80 C 221.99 202.84 222.72 202.92 223.41 203.04 C 224.09 203.16 224.66 203.40 225.35 203.53 C 226.04 203.65 226.76 203.73 227.53 203.77 C 228.30 203.81 229.15 203.77 229.96 203.77 C 230.77 203.77 231.58 203.77 232.39 203.77 C 233.20 203.77 234.05 203.73 234.82 203.77 C 235.58 203.81 236.31 203.89 237.00 204.01 C 237.69 204.13 238.29 204.33 238.94 204.50 C 239.59 204.66 240.24 204.82 240.88 204.98 C 241.53 205.14 242.18 205.31 242.83 205.47 C 243.47 205.63 244.12 205.79 244.77 205.95 C 245.42 206.11 246.06 206.28 246.71 206.44 C 247.36 206.60 248.00 206.76 248.65 206.92 C 249.30 207.09 249.95 207.25 250.59 207.41 C 251.24 207.57 251.89 207.73 252.54 207.89 C 253.18 208.06 253.83 208.22 254.48 208.38 C 255.12 208.54 255.77 208.70 256.42 208.87 C 257.07 209.03 257.73 209.17 258.36 209.35 C 258.99 209.53 259.60 209.74 260.18 209.96 C 260.77 210.18 261.38 210.38 261.88 210.69 C 262.39 210.99 262.83 211.35 263.22 211.78 C 263.60 212.20 264.03 212.75 264.19 213.23 C 264.35 213.72 264.35 214.21 264.19 214.69 C 264.03 215.18 263.64 215.76 263.22 216.15 C 262.79 216.53 262.27 216.82 261.64 217.00 C 261.01 217.18 260.16 217.22 259.45 217.24 C 258.75 217.26 258.06 217.22 257.39 217.12 C 256.72 217.02 256.12 216.77 255.45 216.63 C 254.78 216.49 254.09 216.37 253.39 216.27 C 252.68 216.17 251.91 216.13 251.20 216.03 C 250.49 215.93 249.80 215.80 249.14 215.66 C 248.47 215.52 247.84 215.34 247.20 215.18 C 246.55 215.01 245.90 214.85 245.25 214.69 C 244.61 214.53 243.98 214.35 243.31 214.21 C 242.64 214.06 241.96 213.94 241.25 213.84 C 240.54 213.74 239.79 213.68 239.06 213.60 C 238.34 213.52 237.61 213.44 236.88 213.36 C 236.15 213.28 235.42 213.19 234.69 213.11 C 233.97 213.03 233.24 212.95 232.51 212.87 C 231.78 212.79 231.07 212.69 230.33 212.63 C 229.58 212.57 228.81 212.53 228.02 212.51 C 227.23 212.49 226.36 212.55 225.59 212.51 C 224.82 212.47 224.09 212.39 223.41 212.26 C 222.72 212.14 222.15 211.90 221.47 211.78 C 220.78 211.66 220.05 211.58 219.28 211.54 C 218.51 211.50 217.66 211.54 216.85 211.54 C 216.04 211.54 215.23 211.54 214.43 211.54 C 213.62 211.54 212.77 211.50 212.00 211.54 C 211.23 211.58 210.50 211.66 209.81 211.78 C 209.13 211.90 208.56 212.14 207.87 212.26 C 207.18 212.39 206.46 212.47 205.69 212.51 C 204.92 212.55 204.03 212.47 203.26 212.51 C 202.49 212.55 201.76 212.63 201.08 212.75 C 200.39 212.87 199.78 213.07 199.13 213.23 C 198.49 213.40 197.84 213.56 197.19 213.72 C 196.54 213.88 195.90 214.04 195.25 214.21 C 194.60 214.37 193.96 214.53 193.31 214.69 C 192.66 214.85 192.01 215.01 191.37 215.18 C 190.72 215.34 190.07 215.50 189.42 215.66 C 188.78 215.82 188.13 215.99 187.48 216.15 C 186.83 216.31 186.19 216.47 185.54 216.63 C 184.89 216.79 184.21 216.92 183.60 217.12 C 182.99 217.32 182.43 217.56 181.90 217.85 C 181.37 218.13 180.95 218.51 180.44 218.82 C 179.94 219.12 179.41 219.40 178.86 219.67 C 178.32 219.93 177.73 220.15 177.17 220.40 C 176.60 220.64 176.03 220.88 175.47 221.12 C 174.90 221.37 174.29 221.57 173.77 221.85 C 173.24 222.14 172.76 222.46 172.31 222.82 C 171.87 223.19 171.48 223.61 171.10 224.04 C 170.71 224.46 170.35 224.91 170.00 225.37 C 169.66 225.84 169.32 226.30 169.03 226.83 C 168.75 227.35 168.51 227.92 168.31 228.53 C 168.10 229.13 168.04 229.88 167.82 230.47 C 167.60 231.06 167.31 231.58 166.97 232.05 C 166.63 232.51 166.18 232.88 165.76 233.26 C 165.33 233.64 164.89 234.01 164.42 234.35 C 163.96 234.70 163.47 235.02 162.97 235.32 C 162.46 235.63 161.93 235.91 161.39 236.17 C 160.84 236.44 160.28 236.68 159.69 236.90 C 159.10 237.12 158.50 237.33 157.87 237.51 C 157.24 237.69 156.59 237.85 155.93 237.99 C 155.26 238.14 154.57 238.26 153.86 238.36 C 153.16 238.46 152.39 238.58 151.68 238.60 C 150.97 238.62 150.28 238.58 149.62 238.48 C 148.95 238.38 148.30 238.18 147.67 237.99 C 147.05 237.81 146.44 237.61 145.85 237.39 C 145.27 237.16 144.68 236.94 144.15 236.66 C 143.63 236.38 143.14 236.05 142.70 235.69 C 142.25 235.32 141.89 234.88 141.48 234.47 C 141.08 234.07 140.67 233.67 140.27 233.26 C 139.87 232.86 139.44 232.47 139.06 232.05 C 138.67 231.62 138.31 231.18 137.96 230.71 C 137.62 230.25 137.32 229.74 136.99 229.26 C 136.67 228.77 136.35 228.28 136.02 227.80 C 135.70 227.31 135.39 226.81 135.05 226.34 C 134.71 225.88 134.34 225.43 133.96 225.01 C 133.57 224.58 133.17 224.18 132.74 223.79 C 132.32 223.41 131.88 223.05 131.41 222.70 C 130.94 222.36 130.44 222.05 129.95 221.73 C 129.47 221.41 128.98 221.08 128.50 220.76 C 128.01 220.44 127.55 220.09 127.04 219.79 C 126.53 219.49 126.01 219.20 125.46 218.94 C 124.92 218.68 124.33 218.45 123.76 218.21 C 123.20 217.97 122.63 217.73 122.06 217.48 C 121.50 217.24 120.95 216.98 120.37 216.75 C 119.78 216.53 119.17 216.33 118.54 216.15 C 117.92 215.97 117.25 215.82 116.60 215.66 C 115.96 215.50 115.31 215.34 114.66 215.18 C 114.01 215.01 113.37 214.85 112.72 214.69 C 112.07 214.53 111.42 214.37 110.78 214.21 C 110.13 214.04 109.48 213.88 108.84 213.72 C 108.19 213.56 107.54 213.40 106.89 213.23 C 106.25 213.07 105.64 212.87 104.95 212.75 C 104.26 212.63 103.54 212.55 102.77 212.51 C 102.00 212.47 101.13 212.53 100.34 212.51 C 99.55 212.49 98.78 212.45 98.03 212.39 C 97.29 212.32 96.58 212.22 95.85 212.14 C 95.12 212.06 94.39 211.98 93.66 211.90 C 92.94 211.82 92.23 211.72 91.48 211.66 C 90.73 211.60 89.96 211.56 89.17 211.54 C 88.38 211.52 87.56 211.54 86.75 211.54 C 85.94 211.54 85.13 211.54 84.32 211.54 C 83.51 211.54 82.66 211.50 81.89 211.54 C 81.12 211.58 80.39 211.66 79.71 211.78 C 79.02 211.90 78.45 212.14 77.77 212.26 C 77.08 212.39 76.35 212.47 75.58 212.51 C 74.81 212.55 73.92 212.47 73.15 212.51 C 72.38 212.55 71.66 212.63 70.97 212.75 C 70.28 212.87 69.71 213.11 69.03 213.23 C 68.34 213.36 67.61 213.44 66.84 213.48 C 66.07 213.52 65.18 213.44 64.41 213.48 C 63.65 213.52 62.92 213.60 62.23 213.72 C 61.54 213.84 60.94 214.04 60.29 214.21 C 59.64 214.37 58.99 214.53 58.35 214.69 C 57.70 214.85 57.05 215.01 56.40 215.18 C 55.76 215.34 55.11 215.50 54.46 215.66 C 53.81 215.82 53.17 215.99 52.52 216.15 C 51.87 216.31 51.23 216.47 50.58 216.63 C 49.93 216.79 49.32 217.00 48.64 217.12 C 47.95 217.24 47.22 217.32 46.45 217.36 C 45.68 217.40 44.75 217.44 44.02 217.36 C 43.30 217.28 42.65 217.12 42.08 216.88 C 41.52 216.63 40.99 216.31 40.63 215.90 C 40.26 215.50 40.02 215.01 39.90 214.45 C 39.78 213.88 39.78 213.07 39.90 212.51 C 40.02 211.94 40.26 211.45 40.63 211.05 C 40.99 210.65 41.56 210.36 42.08 210.08 C 42.61 209.80 43.18 209.55 43.78 209.35 C 44.39 209.15 45.10 209.05 45.72 208.87 C 46.35 208.68 46.96 208.48 47.54 208.26 C 48.13 208.04 48.64 207.73 49.24 207.53 C 49.85 207.33 50.50 207.17 51.19 207.04 C 51.87 206.92 52.66 206.90 53.37 206.80 C 54.08 206.70 54.77 206.58 55.43 206.44 C 56.10 206.30 56.73 206.11 57.38 205.95 C 58.02 205.79 58.67 205.63 59.32 205.47 C 59.96 205.31 60.61 205.14 61.26 204.98 C 61.91 204.82 62.55 204.66 63.20 204.50 C 63.85 204.33 64.45 204.13 65.14 204.01 C 65.83 203.89 66.56 203.81 67.33 203.77 C 68.10 203.73 68.99 203.81 69.75 203.77 C 70.52 203.73 71.25 203.65 71.94 203.53 C 72.63 203.40 73.19 203.16 73.88 203.04 C 74.57 202.92 75.30 202.84 76.07 202.80 C 76.83 202.76 77.68 202.80 78.49 202.80 C 79.30 202.80 80.11 202.80 80.92 202.80 C 81.73 202.80 82.54 202.80 83.35 202.80 C 84.16 202.80 84.97 202.80 85.78 202.80 C 86.58 202.80 87.49 202.82 88.20 202.80 C 88.91 202.78 89.52 202.74 90.02 202.68 C 90.53 202.61 90.79 202.47 91.24 202.43 C 91.68 202.39 92.17 202.39 92.69 202.43 Z" fill="#ffffff" fill-rule="evenodd"/>
  <circle cx="101.55" cy="111.04" r="13.80" fill="#ffffff"/>
  <circle cx="204.96" cy="112.01" r="13.80" fill="#ffffff"/>
  <rect x="146.80" y="124.15" width="8.54" height="73.79" fill="#ffffff"/>
  <rect x="129.71" y="153.83" width="42.72" height="8.54" fill="#ffffff"/>
  <path d="M 152.50 19.00 A 133.50 133.50 0 1 1 152.50 286.00 A 133.50 133.50 0 1 1 152.50 19.00 Z M 152.50 51.04 A 101.46 101.46 0 1 0 152.50 253.96 A 101.46 101.46 0 1 0 152.50 51.04 Z" fill="#24506b" fill-rule="evenodd"/>
  <defs>
    <path id="topArc" d="M 35.02 152.50 A 117.48 117.48 0 0 1 269.98 152.50"/>
    <path id="bottomArc" d="M 49.70 152.50 A 102.80 102.80 0 0 0 255.30 152.50"/>
  </defs>
  <g fill="#ffffff" font-family="Arial, Helvetica, sans-serif" font-weight="700" letter-spacing="1.2">
    <text font-size="16">
      <textPath href="#topArc" startOffset="50%" text-anchor="middle">AFRICAN AUSTRALIAN CHRISTIAN</textPath>
    </text>
    <text font-size="16">
      <textPath href="#bottomArc" startOffset="50%" text-anchor="middle">UNITED CHURCH</textPath>
    </text>
  </g>
</svg>
